<mxfile host="Electron" modified="2023-05-19T17:08:55.759Z" agent="Mozilla/5.0 (Windows NT 10.0; Win64; x64) AppleWebKit/537.36 (KHTML, like Gecko) draw.io/21.2.8 Chrome/112.0.5615.165 Electron/24.2.0 Safari/537.36" etag="saLWLMxYx7ZiwPNnZhy6" version="21.2.8" type="device">
  <diagram name="Pagina-1" id="kkxH_ZZQqiRRCnog-N1i">
    <mxGraphModel dx="1649" dy="1022" grid="1" gridSize="10" guides="1" tooltips="1" connect="1" arrows="1" fold="1" page="1" pageScale="1" pageWidth="827" pageHeight="1169" math="0" shadow="0">
      <root>
        <mxCell id="0" />
        <mxCell id="1" parent="0" />
        <mxCell id="j4USrMVoaziMSVzb0Koq-1" style="edgeStyle=orthogonalEdgeStyle;rounded=0;orthogonalLoop=1;jettySize=auto;html=1;exitX=0.5;exitY=1;exitDx=0;exitDy=0;endArrow=none;endFill=0;dashed=1;exitPerimeter=0;" parent="1" source="j4USrMVoaziMSVzb0Koq-2" edge="1">
          <mxGeometry relative="1" as="geometry">
            <mxPoint x="-65" y="1350" as="targetPoint" />
            <mxPoint x="-65" y="480" as="sourcePoint" />
          </mxGeometry>
        </mxCell>
        <mxCell id="j4USrMVoaziMSVzb0Koq-2" value="UI" style="shape=folder;fontStyle=1;spacingTop=10;tabWidth=40;tabHeight=14;tabPosition=left;html=1;whiteSpace=wrap;fillColor=#fff2cc;strokeColor=#d6b656;" parent="1" vertex="1">
          <mxGeometry x="-100" y="340" width="70" height="50" as="geometry" />
        </mxCell>
        <mxCell id="j4USrMVoaziMSVzb0Koq-4" style="edgeStyle=orthogonalEdgeStyle;rounded=0;orthogonalLoop=1;jettySize=auto;html=1;exitX=0.5;exitY=1;exitDx=0;exitDy=0;endArrow=none;endFill=0;dashed=1;" parent="1" edge="1">
          <mxGeometry relative="1" as="geometry">
            <mxPoint x="280" y="1370" as="targetPoint" />
            <mxPoint x="280" y="390" as="sourcePoint" />
          </mxGeometry>
        </mxCell>
        <mxCell id="j4USrMVoaziMSVzb0Koq-5" value="GESTIRE EVENTI" style="text;html=1;align=center;verticalAlign=middle;resizable=0;points=[];autosize=1;strokeColor=none;fillColor=none;" parent="1" vertex="1">
          <mxGeometry x="330" y="118" width="120" height="30" as="geometry" />
        </mxCell>
        <mxCell id="j4USrMVoaziMSVzb0Koq-6" value="&lt;p style=&quot;text-indent: -18pt; font-size: 11px;&quot; class=&quot;MsoListParagraph&quot;&gt;&lt;b&gt;&lt;span style=&quot;line-height: 107%;&quot;&gt;&lt;span style=&quot;mso-list:Ignore&quot;&gt;2.&lt;span style=&quot;font-style: normal; font-variant: normal; font-kerning: auto; font-optical-sizing: auto; font-feature-settings: normal; font-variation-settings: normal; font-weight: normal; font-stretch: normal; line-height: normal; font-family: &amp;quot;Times New Roman&amp;quot;;&quot;&gt;&amp;nbsp;&amp;nbsp; &lt;/span&gt;&lt;/span&gt;&lt;/span&gt;&lt;/b&gt;&lt;b&gt;&lt;span style=&quot;line-height: 107%; font-family: Helvetica, sans-serif; background: white;&quot;&gt;creazioneEvento(&lt;u&gt;dataInizio&lt;/u&gt; : testo, &lt;u&gt;nomeEvento&lt;/u&gt;: testo, &lt;u&gt;luogo&lt;/u&gt;: testo,&amp;nbsp;&lt;/span&gt;&lt;/b&gt;&lt;b&gt;&lt;span style=&quot;font-family: Helvetica, sans-serif; color: black;&quot;&gt;&lt;u&gt;&lt;span style=&quot;background:white&quot;&gt;durata&lt;/span&gt;&lt;/u&gt;&lt;span style=&quot;background:&lt;br/&gt;white&quot;&gt;: testo, &lt;u&gt;numeroPartecipanti&lt;/u&gt;: intero, &lt;u&gt;cliente&lt;/u&gt;: testo)&lt;/span&gt;&lt;/span&gt;&lt;/b&gt;&lt;b&gt;&lt;span style=&quot;font-size:16.0pt;line-height:107%&quot;&gt;&lt;/span&gt;&lt;/b&gt;&lt;/p&gt;" style="text;whiteSpace=wrap;html=1;" parent="1" vertex="1">
          <mxGeometry x="-30" y="180" width="740" height="60" as="geometry" />
        </mxCell>
        <mxCell id="j4USrMVoaziMSVzb0Koq-7" value="eventManager: EventManager" style="html=1;whiteSpace=wrap;fillColor=#fff2cc;strokeColor=#d6b656;" parent="1" vertex="1">
          <mxGeometry x="180" y="360" width="200" height="30" as="geometry" />
        </mxCell>
        <mxCell id="j4USrMVoaziMSVzb0Koq-8" value="UserMng: UserManager" style="html=1;whiteSpace=wrap;fillColor=#fff2cc;strokeColor=#d6b656;" parent="1" vertex="1">
          <mxGeometry x="450" y="360" width="140" height="30" as="geometry" />
        </mxCell>
        <mxCell id="j4USrMVoaziMSVzb0Koq-9" value="eevListener: EventEventReceiver" style="html=1;whiteSpace=wrap;fillColor=#fff2cc;strokeColor=#d6b656;" parent="1" vertex="1">
          <mxGeometry x="670" y="360" width="160" height="30" as="geometry" />
        </mxCell>
        <mxCell id="j4USrMVoaziMSVzb0Koq-10" style="edgeStyle=orthogonalEdgeStyle;rounded=0;orthogonalLoop=1;jettySize=auto;html=1;exitX=0.5;exitY=1;exitDx=0;exitDy=0;endArrow=none;endFill=0;dashed=1;" parent="1" edge="1">
          <mxGeometry relative="1" as="geometry">
            <mxPoint x="519" y="1330" as="targetPoint" />
            <mxPoint x="519.41" y="390" as="sourcePoint" />
          </mxGeometry>
        </mxCell>
        <mxCell id="j4USrMVoaziMSVzb0Koq-11" style="edgeStyle=orthogonalEdgeStyle;rounded=0;orthogonalLoop=1;jettySize=auto;html=1;exitX=0.5;exitY=1;exitDx=0;exitDy=0;endArrow=none;endFill=0;dashed=1;" parent="1" edge="1">
          <mxGeometry relative="1" as="geometry">
            <mxPoint x="749" y="1340" as="targetPoint" />
            <mxPoint x="749.41" y="390" as="sourcePoint" />
          </mxGeometry>
        </mxCell>
        <mxCell id="j4USrMVoaziMSVzb0Koq-12" value="createEvent(name, place, startTime, endTime, guestQty, client)" style="html=1;verticalAlign=bottom;endArrow=block;edgeStyle=elbowEdgeStyle;elbow=vertical;curved=0;rounded=0;" parent="1" edge="1">
          <mxGeometry width="80" relative="1" as="geometry">
            <mxPoint x="-60" y="430" as="sourcePoint" />
            <mxPoint x="280" y="430" as="targetPoint" />
            <Array as="points">
              <mxPoint x="110" y="430" />
            </Array>
          </mxGeometry>
        </mxCell>
        <mxCell id="j4USrMVoaziMSVzb0Koq-13" value="create(name, place, startTime, endTime, guestQty, client)" style="html=1;verticalAlign=bottom;endArrow=block;edgeStyle=elbowEdgeStyle;elbow=vertical;curved=0;rounded=0;" parent="1" edge="1">
          <mxGeometry x="-0.5522" width="80" relative="1" as="geometry">
            <mxPoint x="280" y="690" as="sourcePoint" />
            <mxPoint x="950" y="690" as="targetPoint" />
            <Array as="points">
              <mxPoint x="450" y="690" />
            </Array>
            <mxPoint as="offset" />
          </mxGeometry>
        </mxCell>
        <mxCell id="j4USrMVoaziMSVzb0Koq-14" value="newEvent: Event" style="html=1;whiteSpace=wrap;fillColor=#fff2cc;strokeColor=#d6b656;" parent="1" vertex="1">
          <mxGeometry x="880" y="360" width="140" height="30" as="geometry" />
        </mxCell>
        <mxCell id="j4USrMVoaziMSVzb0Koq-15" style="edgeStyle=orthogonalEdgeStyle;rounded=0;orthogonalLoop=1;jettySize=auto;html=1;exitX=0.5;exitY=1;exitDx=0;exitDy=0;endArrow=none;endFill=0;dashed=1;" parent="1" edge="1">
          <mxGeometry relative="1" as="geometry">
            <mxPoint x="949" y="1350" as="targetPoint" />
            <mxPoint x="949.4399999999999" y="390" as="sourcePoint" />
          </mxGeometry>
        </mxCell>
        <mxCell id="j4USrMVoaziMSVzb0Koq-17" value="getCurrentUser()" style="html=1;verticalAlign=bottom;endArrow=block;edgeStyle=elbowEdgeStyle;elbow=vertical;curved=0;rounded=0;" parent="1" edge="1">
          <mxGeometry width="80" relative="1" as="geometry">
            <mxPoint x="280" y="460" as="sourcePoint" />
            <mxPoint x="520" y="460" as="targetPoint" />
          </mxGeometry>
        </mxCell>
        <mxCell id="j4USrMVoaziMSVzb0Koq-18" value="user" style="html=1;verticalAlign=bottom;endArrow=open;dashed=1;endSize=8;edgeStyle=elbowEdgeStyle;elbow=vertical;curved=0;rounded=0;" parent="1" edge="1">
          <mxGeometry relative="1" as="geometry">
            <mxPoint x="520" y="480" as="sourcePoint" />
            <mxPoint x="280" y="480" as="targetPoint" />
          </mxGeometry>
        </mxCell>
        <mxCell id="j4USrMVoaziMSVzb0Koq-19" value="ALT !user.isOrganizer()" style="shape=umlFrame;whiteSpace=wrap;html=1;pointerEvents=0;fillColor=#f8cecc;strokeColor=#b85450;width=410;height=30;" parent="1" vertex="1">
          <mxGeometry x="-80" y="500" width="1350" height="780" as="geometry" />
        </mxCell>
        <mxCell id="j4USrMVoaziMSVzb0Koq-20" value="ALT startTime.compareTo(LocalDate.now) &amp;lt; 0" style="shape=umlFrame;whiteSpace=wrap;html=1;pointerEvents=0;fillColor=#f8cecc;strokeColor=#b85450;width=410;height=30;" parent="1" vertex="1">
          <mxGeometry x="-80" y="585" width="1350" height="695" as="geometry" />
        </mxCell>
        <mxCell id="j4USrMVoaziMSVzb0Koq-22" value="throwUserLogicException" style="html=1;verticalAlign=bottom;endArrow=open;dashed=1;endSize=8;edgeStyle=elbowEdgeStyle;elbow=vertical;curved=0;rounded=0;" parent="1" edge="1">
          <mxGeometry relative="1" as="geometry">
            <mxPoint x="280" y="560" as="sourcePoint" />
            <mxPoint x="-60" y="560" as="targetPoint" />
          </mxGeometry>
        </mxCell>
        <mxCell id="j4USrMVoaziMSVzb0Koq-23" value="throwEventException" style="html=1;verticalAlign=bottom;endArrow=open;dashed=1;endSize=8;edgeStyle=elbowEdgeStyle;elbow=vertical;curved=0;rounded=0;" parent="1" edge="1">
          <mxGeometry relative="1" as="geometry">
            <mxPoint x="280" y="640" as="sourcePoint" />
            <mxPoint x="-60" y="640" as="targetPoint" />
          </mxGeometry>
        </mxCell>
        <mxCell id="j4USrMVoaziMSVzb0Koq-24" value="" style="html=1;verticalAlign=bottom;endArrow=none;dashed=1;endSize=8;edgeStyle=elbowEdgeStyle;elbow=vertical;curved=0;rounded=0;endFill=0;fillColor=#f8cecc;strokeColor=#b85450;" parent="1" edge="1">
          <mxGeometry relative="1" as="geometry">
            <mxPoint x="1275.3333875868057" y="670" as="sourcePoint" />
            <mxPoint x="-80" y="670" as="targetPoint" />
          </mxGeometry>
        </mxCell>
        <mxCell id="j4USrMVoaziMSVzb0Koq-26" value="this.name = name" style="html=1;align=left;spacingLeft=2;endArrow=block;rounded=0;edgeStyle=orthogonalEdgeStyle;curved=0;rounded=0;" parent="1" edge="1">
          <mxGeometry relative="1" as="geometry">
            <mxPoint x="950" y="690" as="sourcePoint" />
            <Array as="points">
              <mxPoint x="980" y="690" />
              <mxPoint x="980" y="710" />
              <mxPoint x="950" y="710" />
            </Array>
            <mxPoint x="950" y="710" as="targetPoint" />
          </mxGeometry>
        </mxCell>
        <mxCell id="j4USrMVoaziMSVzb0Koq-27" value="this.place = place" style="html=1;align=left;spacingLeft=2;endArrow=block;rounded=0;edgeStyle=orthogonalEdgeStyle;curved=0;rounded=0;" parent="1" edge="1">
          <mxGeometry relative="1" as="geometry">
            <mxPoint x="950" y="720" as="sourcePoint" />
            <Array as="points">
              <mxPoint x="980" y="720" />
              <mxPoint x="980" y="740" />
              <mxPoint x="950" y="740" />
            </Array>
            <mxPoint x="950" y="740" as="targetPoint" />
          </mxGeometry>
        </mxCell>
        <mxCell id="j4USrMVoaziMSVzb0Koq-28" value="this.startTime = startTime" style="html=1;align=left;spacingLeft=2;endArrow=block;rounded=0;edgeStyle=orthogonalEdgeStyle;curved=0;rounded=0;" parent="1" edge="1">
          <mxGeometry relative="1" as="geometry">
            <mxPoint x="950" y="750" as="sourcePoint" />
            <Array as="points">
              <mxPoint x="980" y="750" />
              <mxPoint x="980" y="770" />
              <mxPoint x="950" y="770" />
            </Array>
            <mxPoint x="950" y="770" as="targetPoint" />
          </mxGeometry>
        </mxCell>
        <mxCell id="j4USrMVoaziMSVzb0Koq-29" value="this.endTime = endTime" style="html=1;align=left;spacingLeft=2;endArrow=block;rounded=0;edgeStyle=orthogonalEdgeStyle;curved=0;rounded=0;" parent="1" edge="1">
          <mxGeometry relative="1" as="geometry">
            <mxPoint x="950" y="780" as="sourcePoint" />
            <Array as="points">
              <mxPoint x="980" y="780" />
              <mxPoint x="980" y="800" />
              <mxPoint x="950" y="800" />
            </Array>
            <mxPoint x="950" y="800" as="targetPoint" />
          </mxGeometry>
        </mxCell>
        <mxCell id="j4USrMVoaziMSVzb0Koq-30" value="this.guestQty = guestQty" style="html=1;align=left;spacingLeft=2;endArrow=block;rounded=0;edgeStyle=orthogonalEdgeStyle;curved=0;rounded=0;" parent="1" edge="1">
          <mxGeometry relative="1" as="geometry">
            <mxPoint x="950" y="810" as="sourcePoint" />
            <Array as="points">
              <mxPoint x="980" y="810" />
              <mxPoint x="980" y="830" />
              <mxPoint x="950" y="830" />
            </Array>
            <mxPoint x="950" y="830" as="targetPoint" />
          </mxGeometry>
        </mxCell>
        <mxCell id="j4USrMVoaziMSVzb0Koq-31" value="this.client = client" style="html=1;align=left;spacingLeft=2;endArrow=block;rounded=0;edgeStyle=orthogonalEdgeStyle;curved=0;rounded=0;" parent="1" edge="1">
          <mxGeometry relative="1" as="geometry">
            <mxPoint x="950" y="840" as="sourcePoint" />
            <Array as="points">
              <mxPoint x="980" y="840" />
              <mxPoint x="980" y="860" />
              <mxPoint x="950" y="860" />
            </Array>
            <mxPoint x="950" y="860" as="targetPoint" />
          </mxGeometry>
        </mxCell>
        <mxCell id="j4USrMVoaziMSVzb0Koq-32" value="newEvent" style="html=1;verticalAlign=bottom;endArrow=open;dashed=1;endSize=8;edgeStyle=elbowEdgeStyle;elbow=vertical;curved=0;rounded=0;" parent="1" edge="1">
          <mxGeometry x="0.8796" relative="1" as="geometry">
            <mxPoint x="950" y="1040.0900000000001" as="sourcePoint" />
            <mxPoint x="280" y="1040" as="targetPoint" />
            <mxPoint as="offset" />
          </mxGeometry>
        </mxCell>
        <mxCell id="j4USrMVoaziMSVzb0Koq-33" value="" style="html=1;points=[];perimeter=orthogonalPerimeter;outlineConnect=0;targetShapes=umlLifeline;portConstraint=eastwest;newEdgeStyle={&quot;edgeStyle&quot;:&quot;elbowEdgeStyle&quot;,&quot;elbow&quot;:&quot;vertical&quot;,&quot;curved&quot;:0,&quot;rounded&quot;:0};shadow=0;imageAspect=1;fillOpacity=50;strokeOpacity=50;" parent="1" vertex="1">
          <mxGeometry x="515" y="460" width="10" height="20" as="geometry" />
        </mxCell>
        <mxCell id="j4USrMVoaziMSVzb0Koq-34" value="" style="html=1;points=[];perimeter=orthogonalPerimeter;outlineConnect=0;targetShapes=umlLifeline;portConstraint=eastwest;newEdgeStyle={&quot;edgeStyle&quot;:&quot;elbowEdgeStyle&quot;,&quot;elbow&quot;:&quot;vertical&quot;,&quot;curved&quot;:0,&quot;rounded&quot;:0};shadow=0;imageAspect=1;fillOpacity=50;strokeOpacity=50;" parent="1" vertex="1">
          <mxGeometry x="945" y="690" width="10" height="350" as="geometry" />
        </mxCell>
        <mxCell id="j4USrMVoaziMSVzb0Koq-35" value="this.organizer = user" style="html=1;align=left;spacingLeft=2;endArrow=block;rounded=0;edgeStyle=orthogonalEdgeStyle;curved=0;rounded=0;" parent="1" edge="1">
          <mxGeometry relative="1" as="geometry">
            <mxPoint x="955" y="870" as="sourcePoint" />
            <Array as="points">
              <mxPoint x="985" y="870" />
              <mxPoint x="985" y="890" />
              <mxPoint x="955" y="890" />
            </Array>
            <mxPoint x="955" y="890" as="targetPoint" />
          </mxGeometry>
        </mxCell>
        <mxCell id="j4USrMVoaziMSVzb0Koq-37" value="this.currentEvent = newEvent" style="html=1;align=left;spacingLeft=2;endArrow=block;rounded=0;edgeStyle=orthogonalEdgeStyle;curved=0;rounded=0;" parent="1" edge="1">
          <mxGeometry relative="1" as="geometry">
            <mxPoint x="285" y="1050" as="sourcePoint" />
            <Array as="points">
              <mxPoint x="315" y="1080" />
            </Array>
            <mxPoint x="290" y="1080" as="targetPoint" />
          </mxGeometry>
        </mxCell>
        <mxCell id="j4USrMVoaziMSVzb0Koq-38" value="notifyCreatedEvent(newEvent)" style="html=1;align=left;spacingLeft=2;endArrow=block;rounded=0;edgeStyle=orthogonalEdgeStyle;curved=0;rounded=0;" parent="1" edge="1">
          <mxGeometry relative="1" as="geometry">
            <mxPoint x="280" y="1100" as="sourcePoint" />
            <Array as="points">
              <mxPoint x="310" y="1130" />
            </Array>
            <mxPoint x="285" y="1130" as="targetPoint" />
          </mxGeometry>
        </mxCell>
        <mxCell id="j4USrMVoaziMSVzb0Koq-39" value="&lt;font style=&quot;font-size: 10px;&quot;&gt;LOOP:for all receivers in&amp;nbsp;&lt;/font&gt;&lt;font style=&quot;font-size: 9px;&quot;&gt;eevListener&lt;/font&gt;" style="shape=umlFrame;whiteSpace=wrap;html=1;pointerEvents=0;width=200;height=20;" parent="1" vertex="1">
          <mxGeometry x="250" y="1140" width="630" height="110" as="geometry" />
        </mxCell>
        <mxCell id="j4USrMVoaziMSVzb0Koq-40" value="updateCreatedEvent(newEvent)" style="html=1;verticalAlign=bottom;endArrow=block;edgeStyle=elbowEdgeStyle;elbow=vertical;curved=0;rounded=0;" parent="1" edge="1">
          <mxGeometry x="-0.5733" width="80" relative="1" as="geometry">
            <mxPoint x="280" y="1190.11" as="sourcePoint" />
            <mxPoint x="750" y="1190" as="targetPoint" />
            <mxPoint as="offset" />
          </mxGeometry>
        </mxCell>
        <mxCell id="j4USrMVoaziMSVzb0Koq-41" value="" style="html=1;points=[];perimeter=orthogonalPerimeter;outlineConnect=0;targetShapes=umlLifeline;portConstraint=eastwest;newEdgeStyle={&quot;edgeStyle&quot;:&quot;elbowEdgeStyle&quot;,&quot;elbow&quot;:&quot;vertical&quot;,&quot;curved&quot;:0,&quot;rounded&quot;:0};shadow=0;imageAspect=1;fillOpacity=50;strokeOpacity=50;" parent="1" vertex="1">
          <mxGeometry x="275" y="460" width="10" height="800" as="geometry" />
        </mxCell>
        <mxCell id="j4USrMVoaziMSVzb0Koq-42" value="newEvent" style="html=1;verticalAlign=bottom;endArrow=open;dashed=1;endSize=8;edgeStyle=elbowEdgeStyle;elbow=vertical;curved=0;rounded=0;" parent="1" edge="1">
          <mxGeometry x="0.6351" relative="1" as="geometry">
            <mxPoint x="275" y="1260.29" as="sourcePoint" />
            <mxPoint x="-55" y="1260.29" as="targetPoint" />
            <mxPoint as="offset" />
          </mxGeometry>
        </mxCell>
        <mxCell id="j4USrMVoaziMSVzb0Koq-43" value="" style="html=1;points=[];perimeter=orthogonalPerimeter;outlineConnect=0;targetShapes=umlLifeline;portConstraint=eastwest;newEdgeStyle={&quot;edgeStyle&quot;:&quot;elbowEdgeStyle&quot;,&quot;elbow&quot;:&quot;vertical&quot;,&quot;curved&quot;:0,&quot;rounded&quot;:0};shadow=0;imageAspect=1;fillOpacity=50;strokeOpacity=50;" parent="1" vertex="1">
          <mxGeometry x="745" y="1190" width="10" height="20" as="geometry" />
        </mxCell>
        <mxCell id="j4USrMVoaziMSVzb0Koq-44" value="create()" style="html=1;verticalAlign=bottom;endArrow=block;edgeStyle=elbowEdgeStyle;elbow=vertical;curved=0;rounded=0;entryX=-0.031;entryY=0.688;entryDx=0;entryDy=0;entryPerimeter=0;" parent="1" target="j4USrMVoaziMSVzb0Koq-45" edge="1">
          <mxGeometry x="-0.6359" width="80" relative="1" as="geometry">
            <mxPoint x="950" y="960" as="sourcePoint" />
            <mxPoint x="1020" y="960" as="targetPoint" />
            <Array as="points" />
            <mxPoint as="offset" />
          </mxGeometry>
        </mxCell>
        <mxCell id="j4USrMVoaziMSVzb0Koq-45" value="services: ArrayList&amp;lt;Service&amp;gt;" style="html=1;whiteSpace=wrap;fillColor=#fff2cc;strokeColor=#d6b656;" parent="1" vertex="1">
          <mxGeometry x="1120" y="940" width="140" height="30" as="geometry" />
        </mxCell>
        <mxCell id="j4USrMVoaziMSVzb0Koq-46" style="edgeStyle=orthogonalEdgeStyle;rounded=0;orthogonalLoop=1;jettySize=auto;html=1;exitX=0.5;exitY=1;exitDx=0;exitDy=0;endArrow=none;endFill=0;dashed=1;" parent="1" edge="1">
          <mxGeometry relative="1" as="geometry">
            <mxPoint x="1189" y="1350" as="targetPoint" />
            <mxPoint x="1189.29" y="970" as="sourcePoint" />
          </mxGeometry>
        </mxCell>
        <mxCell id="j4USrMVoaziMSVzb0Koq-47" value="services" style="html=1;verticalAlign=bottom;endArrow=open;dashed=1;endSize=8;edgeStyle=elbowEdgeStyle;elbow=vertical;curved=0;rounded=0;" parent="1" source="j4USrMVoaziMSVzb0Koq-48" edge="1">
          <mxGeometry x="0.746" relative="1" as="geometry">
            <mxPoint x="1100" y="990.29" as="sourcePoint" />
            <mxPoint x="950" y="991" as="targetPoint" />
            <mxPoint as="offset" />
          </mxGeometry>
        </mxCell>
        <mxCell id="j4USrMVoaziMSVzb0Koq-48" value="" style="html=1;points=[];perimeter=orthogonalPerimeter;outlineConnect=0;targetShapes=umlLifeline;portConstraint=eastwest;newEdgeStyle={&quot;edgeStyle&quot;:&quot;elbowEdgeStyle&quot;,&quot;elbow&quot;:&quot;vertical&quot;,&quot;curved&quot;:0,&quot;rounded&quot;:0};shadow=0;imageAspect=1;fillOpacity=50;strokeOpacity=50;" parent="1" vertex="1">
          <mxGeometry x="1185" y="970" width="10" height="20" as="geometry" />
        </mxCell>
        <mxCell id="j4USrMVoaziMSVzb0Koq-52" value="this.serveces = serveces" style="html=1;align=left;spacingLeft=2;endArrow=block;rounded=0;edgeStyle=orthogonalEdgeStyle;curved=0;rounded=0;" parent="1" edge="1">
          <mxGeometry relative="1" as="geometry">
            <mxPoint x="955" y="1000" as="sourcePoint" />
            <Array as="points">
              <mxPoint x="985" y="1030" />
            </Array>
            <mxPoint x="960" y="1030" as="targetPoint" />
          </mxGeometry>
        </mxCell>
        <mxCell id="j4USrMVoaziMSVzb0Koq-58" value="this.state = 0" style="html=1;align=left;spacingLeft=2;endArrow=block;rounded=0;edgeStyle=orthogonalEdgeStyle;curved=0;rounded=0;" parent="1" edge="1">
          <mxGeometry relative="1" as="geometry">
            <mxPoint x="955" y="900" as="sourcePoint" />
            <Array as="points">
              <mxPoint x="985" y="900" />
              <mxPoint x="985" y="920" />
              <mxPoint x="955" y="920" />
            </Array>
            <mxPoint x="955" y="920" as="targetPoint" />
          </mxGeometry>
        </mxCell>
      </root>
    </mxGraphModel>
  </diagram>
</mxfile>
